<svg width="272" height="149" viewBox="0 0 272 149" fill="none" xmlns="http://www.w3.org/2000/svg">
<g filter="url(#filter0_ddd)">
<path d="M142 33L136 33L130 33L136 27L142 33Z" fill="#262626"/>
<rect x="36" y="33" width="200" height="78" rx="2" fill="#262626"/>
<path d="M45.2578 45.1357V55H48.6416C51.5742 55 53.2969 53.1748 53.2969 50.0645C53.2969 46.9609 51.5674 45.1357 48.6416 45.1357H45.2578ZM46.4883 46.2432H48.5596C50.7471 46.2432 52.0391 47.665 52.0391 50.0781C52.0391 52.4844 50.7607 53.8926 48.5596 53.8926H46.4883V46.2432ZM55.3066 55H56.4824V47.6309H55.3066V55ZM55.8945 46.1338C56.3457 46.1338 56.7148 45.7646 56.7148 45.3135C56.7148 44.8623 56.3457 44.4932 55.8945 44.4932C55.4434 44.4932 55.0742 44.8623 55.0742 45.3135C55.0742 45.7646 55.4434 46.1338 55.8945 46.1338ZM58.5537 49.6475C58.5537 50.7139 59.1826 51.3086 60.5635 51.6436L61.8281 51.9512C62.6143 52.1426 62.9971 52.4844 62.9971 52.9902C62.9971 53.667 62.2861 54.1387 61.2949 54.1387C60.3516 54.1387 59.7637 53.7422 59.5654 53.1201H58.3555C58.4854 54.3438 59.6133 55.1299 61.2539 55.1299C62.9287 55.1299 64.207 54.2207 64.207 52.9014C64.207 51.8418 63.5371 51.2402 62.1494 50.9053L61.0146 50.6318C60.1465 50.4199 59.7363 50.1055 59.7363 49.5996C59.7363 48.9434 60.4199 48.499 61.2949 48.499C62.1836 48.499 62.7578 48.8887 62.915 49.4766H64.0771C63.9199 48.2666 62.8467 47.501 61.3018 47.501C59.7363 47.501 58.5537 48.4238 58.5537 49.6475ZM66.4766 45.7236V47.6309H65.2871V48.6152H66.4766V53.0859C66.4766 54.4941 67.085 55.0547 68.6025 55.0547C68.835 55.0547 69.0605 55.0273 69.293 54.9863V53.9951C69.0742 54.0156 68.958 54.0225 68.7461 54.0225C67.9805 54.0225 67.6523 53.6533 67.6523 52.7852V48.6152H69.293V47.6309H67.6523V45.7236H66.4766ZM71.0977 55H72.2734V47.6309H71.0977V55ZM71.6855 46.1338C72.1367 46.1338 72.5059 45.7646 72.5059 45.3135C72.5059 44.8623 72.1367 44.4932 71.6855 44.4932C71.2344 44.4932 70.8652 44.8623 70.8652 45.3135C70.8652 45.7646 71.2344 46.1338 71.6855 46.1338ZM74.5156 55H75.6914V50.6387C75.6914 49.3467 76.4502 48.5605 77.626 48.5605C78.8018 48.5605 79.3623 49.1895 79.3623 50.5156V55H80.5381V50.2285C80.5381 48.4785 79.6152 47.501 77.9609 47.501C76.833 47.501 76.1152 47.9795 75.7461 48.793H75.6367V47.6309H74.5156V55ZM88.7891 49.8867C88.584 48.5742 87.4902 47.501 85.6992 47.501C83.6348 47.501 82.3223 48.9912 82.3223 51.2881C82.3223 53.6328 83.6416 55.1299 85.7061 55.1299C87.4766 55.1299 88.5771 54.1318 88.7891 52.7783H87.5996C87.3809 53.6123 86.6904 54.0703 85.6992 54.0703C84.3867 54.0703 83.5391 52.9902 83.5391 51.2881C83.5391 49.6201 84.373 48.5605 85.6992 48.5605C86.7588 48.5605 87.4082 49.1553 87.5996 49.8867H88.7891ZM91.1543 45.7236V47.6309H89.9648V48.6152H91.1543V53.0859C91.1543 54.4941 91.7627 55.0547 93.2803 55.0547C93.5127 55.0547 93.7383 55.0273 93.9707 54.9863V53.9951C93.752 54.0156 93.6357 54.0225 93.4238 54.0225C92.6582 54.0225 92.3301 53.6533 92.3301 52.7852V48.6152H93.9707V47.6309H92.3301V45.7236H91.1543ZM95.7754 55H96.9512V47.6309H95.7754V55ZM96.3633 46.1338C96.8145 46.1338 97.1836 45.7646 97.1836 45.3135C97.1836 44.8623 96.8145 44.4932 96.3633 44.4932C95.9121 44.4932 95.543 44.8623 95.543 45.3135C95.543 45.7646 95.9121 46.1338 96.3633 46.1338ZM105.209 47.6309H103.951L101.935 53.7012H101.825L99.8086 47.6309H98.5508L101.278 55H102.481L105.209 47.6309ZM109.447 48.54C110.616 48.54 111.396 49.4014 111.423 50.707H107.362C107.451 49.4014 108.271 48.54 109.447 48.54ZM111.389 53.0928C111.081 53.7422 110.438 54.0908 109.488 54.0908C108.237 54.0908 107.424 53.168 107.362 51.7119V51.6572H112.66V51.2061C112.66 48.916 111.45 47.501 109.461 47.501C107.438 47.501 106.139 49.0049 106.139 51.3223C106.139 53.6533 107.417 55.1299 109.461 55.1299C111.074 55.1299 112.209 54.3574 112.564 53.0928H111.389ZM114.574 55H115.75V44.7051H114.574V55ZM118.662 57.666C119.968 57.666 120.556 57.1602 121.185 55.4512L124.062 47.6309H122.812L120.795 53.6943H120.686L118.662 47.6309H117.391L120.118 55.0068L119.981 55.4443C119.674 56.333 119.305 56.6543 118.628 56.6543C118.464 56.6543 118.279 56.6475 118.136 56.6201V57.625C118.3 57.6523 118.505 57.666 118.662 57.666ZM129.586 55H130.762V50.4336C130.762 49.3945 131.507 48.5605 132.471 48.5605C133.4 48.5605 134.009 49.1211 134.009 49.9961V55H135.185V50.2627C135.185 49.3262 135.868 48.5605 136.894 48.5605C137.933 48.5605 138.445 49.0938 138.445 50.1807V55H139.621V49.9072C139.621 48.3623 138.78 47.501 137.276 47.501C136.258 47.501 135.417 48.0137 135.021 48.793H134.911C134.569 48.0273 133.872 47.501 132.874 47.501C131.89 47.501 131.151 47.9727 130.816 48.793H130.707V47.6309H129.586V55ZM144.796 55.1299C146.895 55.1299 148.193 53.6807 148.193 51.3154C148.193 48.9434 146.895 47.501 144.796 47.501C142.697 47.501 141.398 48.9434 141.398 51.3154C141.398 53.6807 142.697 55.1299 144.796 55.1299ZM144.796 54.0703C143.401 54.0703 142.615 53.0586 142.615 51.3154C142.615 49.5654 143.401 48.5605 144.796 48.5605C146.19 48.5605 146.977 49.5654 146.977 51.3154C146.977 53.0586 146.19 54.0703 144.796 54.0703ZM150.039 55H151.215V50.6387C151.215 49.3467 151.974 48.5605 153.149 48.5605C154.325 48.5605 154.886 49.1895 154.886 50.5156V55H156.062V50.2285C156.062 48.4785 155.139 47.501 153.484 47.501C152.356 47.501 151.639 47.9795 151.27 48.793H151.16V47.6309H150.039V55ZM161.154 48.54C162.323 48.54 163.103 49.4014 163.13 50.707H159.069C159.158 49.4014 159.979 48.54 161.154 48.54ZM163.096 53.0928C162.788 53.7422 162.146 54.0908 161.195 54.0908C159.944 54.0908 159.131 53.168 159.069 51.7119V51.6572H164.367V51.2061C164.367 48.916 163.157 47.501 161.168 47.501C159.145 47.501 157.846 49.0049 157.846 51.3223C157.846 53.6533 159.124 55.1299 161.168 55.1299C162.781 55.1299 163.916 54.3574 164.271 53.0928H163.096ZM166.705 45.7236V47.6309H165.516V48.6152H166.705V53.0859C166.705 54.4941 167.313 55.0547 168.831 55.0547C169.063 55.0547 169.289 55.0273 169.521 54.9863V53.9951C169.303 54.0156 169.187 54.0225 168.975 54.0225C168.209 54.0225 167.881 53.6533 167.881 52.7852V48.6152H169.521V47.6309H167.881V45.7236H166.705ZM171.326 55H172.502V47.6309H171.326V55ZM171.914 46.1338C172.365 46.1338 172.734 45.7646 172.734 45.3135C172.734 44.8623 172.365 44.4932 171.914 44.4932C171.463 44.4932 171.094 44.8623 171.094 45.3135C171.094 45.7646 171.463 46.1338 171.914 46.1338ZM174.573 55H180.247V54.0156H175.995V53.9062L180.227 48.5127V47.6309H174.58V48.6152H178.825V48.7246L174.573 54.1387V55ZM185.025 48.54C186.194 48.54 186.974 49.4014 187.001 50.707H182.94C183.029 49.4014 183.85 48.54 185.025 48.54ZM186.967 53.0928C186.659 53.7422 186.017 54.0908 185.066 54.0908C183.815 54.0908 183.002 53.168 182.94 51.7119V51.6572H188.238V51.2061C188.238 48.916 187.028 47.501 185.039 47.501C183.016 47.501 181.717 49.0049 181.717 51.3223C181.717 53.6533 182.995 55.1299 185.039 55.1299C186.652 55.1299 187.787 54.3574 188.143 53.0928H186.967ZM200.133 49.8867C199.928 48.5742 198.834 47.501 197.043 47.501C194.979 47.501 193.666 48.9912 193.666 51.2881C193.666 53.6328 194.985 55.1299 197.05 55.1299C198.82 55.1299 199.921 54.1318 200.133 52.7783H198.943C198.725 53.6123 198.034 54.0703 197.043 54.0703C195.73 54.0703 194.883 52.9902 194.883 51.2881C194.883 49.6201 195.717 48.5605 197.043 48.5605C198.103 48.5605 198.752 49.1553 198.943 49.8867H200.133ZM204.897 55.1299C206.996 55.1299 208.295 53.6807 208.295 51.3154C208.295 48.9434 206.996 47.501 204.897 47.501C202.799 47.501 201.5 48.9434 201.5 51.3154C201.5 53.6807 202.799 55.1299 204.897 55.1299ZM204.897 54.0703C203.503 54.0703 202.717 53.0586 202.717 51.3154C202.717 49.5654 203.503 48.5605 204.897 48.5605C206.292 48.5605 207.078 49.5654 207.078 51.3154C207.078 53.0586 206.292 54.0703 204.897 54.0703ZM209.97 49.6475C209.97 50.7139 210.599 51.3086 211.979 51.6436L213.244 51.9512C214.03 52.1426 214.413 52.4844 214.413 52.9902C214.413 53.667 213.702 54.1387 212.711 54.1387C211.768 54.1387 211.18 53.7422 210.981 53.1201H209.771C209.901 54.3438 211.029 55.1299 212.67 55.1299C214.345 55.1299 215.623 54.2207 215.623 52.9014C215.623 51.8418 214.953 51.2402 213.565 50.9053L212.431 50.6318C211.562 50.4199 211.152 50.1055 211.152 49.5996C211.152 48.9434 211.836 48.499 212.711 48.499C213.6 48.499 214.174 48.8887 214.331 49.4766H215.493C215.336 48.2666 214.263 47.501 212.718 47.501C211.152 47.501 209.97 48.4238 209.97 49.6475ZM217.893 45.7236V47.6309H216.703V48.6152H217.893V53.0859C217.893 54.4941 218.501 55.0547 220.019 55.0547C220.251 55.0547 220.477 55.0273 220.709 54.9863V53.9951C220.49 54.0156 220.374 54.0225 220.162 54.0225C219.396 54.0225 219.068 53.6533 219.068 52.7852V48.6152H220.709V47.6309H219.068V45.7236H217.893ZM48.0469 70.54C49.2158 70.54 49.9951 71.4014 50.0225 72.707H45.9619C46.0508 71.4014 46.8711 70.54 48.0469 70.54ZM49.9883 75.0928C49.6807 75.7422 49.0381 76.0908 48.0879 76.0908C46.8369 76.0908 46.0234 75.168 45.9619 73.7119V73.6572H51.2598V73.2061C51.2598 70.916 50.0498 69.501 48.0605 69.501C46.0371 69.501 44.7383 71.0049 44.7383 73.3223C44.7383 75.6533 46.0166 77.1299 48.0605 77.1299C49.6738 77.1299 50.8086 76.3574 51.1641 75.0928H49.9883ZM53.5977 77H54.7734V70.6152H56.4619V69.6309H54.7734V68.8447C54.7734 68.0381 55.1289 67.6279 55.9766 67.6279C56.1885 67.6279 56.3867 67.6348 56.5303 67.6621V66.7051C56.2842 66.6572 56.0244 66.6367 55.7373 66.6367C54.3359 66.6367 53.5977 67.3408 53.5977 68.8105V69.6309H52.374V70.6152H53.5977V77ZM58.6699 77H59.8457V70.6152H61.5342V69.6309H59.8457V68.8447C59.8457 68.0381 60.2012 67.6279 61.0488 67.6279C61.2607 67.6279 61.459 67.6348 61.6025 67.6621V66.7051C61.3564 66.6572 61.0967 66.6367 60.8096 66.6367C59.4082 66.6367 58.6699 67.3408 58.6699 68.8105V69.6309H57.4463V70.6152H58.6699V77ZM65.875 70.54C67.0439 70.54 67.8232 71.4014 67.8506 72.707H63.79C63.8789 71.4014 64.6992 70.54 65.875 70.54ZM67.8164 75.0928C67.5088 75.7422 66.8662 76.0908 65.916 76.0908C64.665 76.0908 63.8516 75.168 63.79 73.7119V73.6572H69.0879V73.2061C69.0879 70.916 67.8779 69.501 65.8887 69.501C63.8652 69.501 62.5664 71.0049 62.5664 73.3223C62.5664 75.6533 63.8447 77.1299 65.8887 77.1299C67.502 77.1299 68.6367 76.3574 68.9922 75.0928H67.8164ZM77.0312 71.8867C76.8262 70.5742 75.7324 69.501 73.9414 69.501C71.877 69.501 70.5645 70.9912 70.5645 73.2881C70.5645 75.6328 71.8838 77.1299 73.9482 77.1299C75.7188 77.1299 76.8193 76.1318 77.0312 74.7783H75.8418C75.623 75.6123 74.9326 76.0703 73.9414 76.0703C72.6289 76.0703 71.7812 74.9902 71.7812 73.2881C71.7812 71.6201 72.6152 70.5605 73.9414 70.5605C75.001 70.5605 75.6504 71.1553 75.8418 71.8867H77.0312ZM79.3965 67.7236V69.6309H78.207V70.6152H79.3965V75.0859C79.3965 76.4941 80.0049 77.0547 81.5225 77.0547C81.7549 77.0547 81.9805 77.0273 82.2129 76.9863V75.9951C81.9941 76.0156 81.8779 76.0225 81.666 76.0225C80.9004 76.0225 80.5723 75.6533 80.5723 74.7852V70.6152H82.2129V69.6309H80.5723V67.7236H79.3965ZM84.0176 77H85.1934V69.6309H84.0176V77ZM84.6055 68.1338C85.0566 68.1338 85.4258 67.7646 85.4258 67.3135C85.4258 66.8623 85.0566 66.4932 84.6055 66.4932C84.1543 66.4932 83.7852 66.8623 83.7852 67.3135C83.7852 67.7646 84.1543 68.1338 84.6055 68.1338ZM93.4512 69.6309H92.1934L90.1768 75.7012H90.0674L88.0508 69.6309H86.793L89.5205 77H90.7236L93.4512 69.6309ZM97.6895 70.54C98.8584 70.54 99.6377 71.4014 99.665 72.707H95.6045C95.6934 71.4014 96.5137 70.54 97.6895 70.54ZM99.6309 75.0928C99.3232 75.7422 98.6807 76.0908 97.7305 76.0908C96.4795 76.0908 95.666 75.168 95.6045 73.7119V73.6572H100.902V73.2061C100.902 70.916 99.6924 69.501 97.7031 69.501C95.6797 69.501 94.3809 71.0049 94.3809 73.3223C94.3809 75.6533 95.6592 77.1299 97.7031 77.1299C99.3164 77.1299 100.451 76.3574 100.807 75.0928H99.6309ZM106.699 77H107.875V72.6387C107.875 71.3467 108.634 70.5605 109.81 70.5605C110.985 70.5605 111.546 71.1895 111.546 72.5156V77H112.722V72.2285C112.722 70.4785 111.799 69.501 110.145 69.501C109.017 69.501 108.299 69.9795 107.93 70.793H107.82V69.6309H106.699V77ZM117.814 70.54C118.983 70.54 119.763 71.4014 119.79 72.707H115.729C115.818 71.4014 116.639 70.54 117.814 70.54ZM119.756 75.0928C119.448 75.7422 118.806 76.0908 117.855 76.0908C116.604 76.0908 115.791 75.168 115.729 73.7119V73.6572H121.027V73.2061C121.027 70.916 119.817 69.501 117.828 69.501C115.805 69.501 114.506 71.0049 114.506 73.3223C114.506 75.6533 115.784 77.1299 117.828 77.1299C119.441 77.1299 120.576 76.3574 120.932 75.0928H119.756ZM123.365 67.7236V69.6309H122.176V70.6152H123.365V75.0859C123.365 76.4941 123.974 77.0547 125.491 77.0547C125.724 77.0547 125.949 77.0273 126.182 76.9863V75.9951C125.963 76.0156 125.847 76.0225 125.635 76.0225C124.869 76.0225 124.541 75.6533 124.541 74.7852V70.6152H126.182V69.6309H124.541V67.7236H123.365ZM137.229 69.6309H136.046L134.597 75.5234H134.487L132.84 69.6309H131.712L130.064 75.5234H129.955L128.506 69.6309H127.316L129.381 77H130.57L132.211 71.2988H132.32L133.968 77H135.164L137.229 69.6309ZM141.556 77.1299C143.654 77.1299 144.953 75.6807 144.953 73.3154C144.953 70.9434 143.654 69.501 141.556 69.501C139.457 69.501 138.158 70.9434 138.158 73.3154C138.158 75.6807 139.457 77.1299 141.556 77.1299ZM141.556 76.0703C140.161 76.0703 139.375 75.0586 139.375 73.3154C139.375 71.5654 140.161 70.5605 141.556 70.5605C142.95 70.5605 143.736 71.5654 143.736 73.3154C143.736 75.0586 142.95 76.0703 141.556 76.0703ZM146.799 77H147.975V72.4336C147.975 71.3945 148.788 70.6426 149.909 70.6426C150.142 70.6426 150.565 70.6836 150.661 70.7109V69.5352C150.511 69.5146 150.265 69.501 150.073 69.501C149.096 69.501 148.248 70.0068 148.029 70.7246H147.92V69.6309H146.799V77ZM153.484 72.8506H153.375V66.7051H152.199V77H153.375V74.2041L154.079 73.5479L156.841 77H158.338L154.954 72.7891L158.126 69.6309H156.684L153.484 72.8506ZM159.288 71.6475C159.288 72.7139 159.917 73.3086 161.298 73.6436L162.562 73.9512C163.349 74.1426 163.731 74.4844 163.731 74.9902C163.731 75.667 163.021 76.1387 162.029 76.1387C161.086 76.1387 160.498 75.7422 160.3 75.1201H159.09C159.22 76.3438 160.348 77.1299 161.988 77.1299C163.663 77.1299 164.941 76.2207 164.941 74.9014C164.941 73.8418 164.271 73.2402 162.884 72.9053L161.749 72.6318C160.881 72.4199 160.471 72.1055 160.471 71.5996C160.471 70.9434 161.154 70.499 162.029 70.499C162.918 70.499 163.492 70.8887 163.649 71.4766H164.812C164.654 70.2666 163.581 69.501 162.036 69.501C160.471 69.501 159.288 70.4238 159.288 71.6475ZM171.23 77H172.406V70.6152H174.095V69.6309H172.406V68.8447C172.406 68.0381 172.762 67.6279 173.609 67.6279C173.821 67.6279 174.02 67.6348 174.163 67.6621V66.7051C173.917 66.6572 173.657 66.6367 173.37 66.6367C171.969 66.6367 171.23 67.3408 171.23 68.8105V69.6309H170.007V70.6152H171.23V77ZM178.524 77.1299C180.623 77.1299 181.922 75.6807 181.922 73.3154C181.922 70.9434 180.623 69.501 178.524 69.501C176.426 69.501 175.127 70.9434 175.127 73.3154C175.127 75.6807 176.426 77.1299 178.524 77.1299ZM178.524 76.0703C177.13 76.0703 176.344 75.0586 176.344 73.3154C176.344 71.5654 177.13 70.5605 178.524 70.5605C179.919 70.5605 180.705 71.5654 180.705 73.3154C180.705 75.0586 179.919 76.0703 178.524 76.0703ZM183.768 77H184.943V72.4336C184.943 71.3945 185.757 70.6426 186.878 70.6426C187.11 70.6426 187.534 70.6836 187.63 70.7109V69.5352C187.479 69.5146 187.233 69.501 187.042 69.501C186.064 69.501 185.217 70.0068 184.998 70.7246H184.889V69.6309H183.768V77ZM51.2051 93.8867C51 92.5742 49.9062 91.501 48.1152 91.501C46.0508 91.501 44.7383 92.9912 44.7383 95.2881C44.7383 97.6328 46.0576 99.1299 48.1221 99.1299C49.8926 99.1299 50.9932 98.1318 51.2051 96.7783H50.0156C49.7969 97.6123 49.1064 98.0703 48.1152 98.0703C46.8027 98.0703 45.9551 96.9902 45.9551 95.2881C45.9551 93.6201 46.7891 92.5605 48.1152 92.5605C49.1748 92.5605 49.8242 93.1553 50.0156 93.8867H51.2051ZM52.9414 99H54.1172V94.4336C54.1172 93.3945 54.9307 92.6426 56.0518 92.6426C56.2842 92.6426 56.708 92.6836 56.8037 92.7109V91.5352C56.6533 91.5146 56.4072 91.501 56.2158 91.501C55.2383 91.501 54.3906 92.0068 54.1719 92.7246H54.0625V91.6309H52.9414V99ZM61.0967 99.1299C63.1953 99.1299 64.4941 97.6807 64.4941 95.3154C64.4941 92.9434 63.1953 91.501 61.0967 91.501C58.998 91.501 57.6992 92.9434 57.6992 95.3154C57.6992 97.6807 58.998 99.1299 61.0967 99.1299ZM61.0967 98.0703C59.7021 98.0703 58.916 97.0586 58.916 95.3154C58.916 93.5654 59.7021 92.5605 61.0967 92.5605C62.4912 92.5605 63.2773 93.5654 63.2773 95.3154C63.2773 97.0586 62.4912 98.0703 61.0967 98.0703ZM66.1689 93.6475C66.1689 94.7139 66.7979 95.3086 68.1787 95.6436L69.4434 95.9512C70.2295 96.1426 70.6123 96.4844 70.6123 96.9902C70.6123 97.667 69.9014 98.1387 68.9102 98.1387C67.9668 98.1387 67.3789 97.7422 67.1807 97.1201H65.9707C66.1006 98.3438 67.2285 99.1299 68.8691 99.1299C70.5439 99.1299 71.8223 98.2207 71.8223 96.9014C71.8223 95.8418 71.1523 95.2402 69.7646 94.9053L68.6299 94.6318C67.7617 94.4199 67.3516 94.1055 67.3516 93.5996C67.3516 92.9434 68.0352 92.499 68.9102 92.499C69.7988 92.499 70.373 92.8887 70.5303 93.4766H71.6924C71.5352 92.2666 70.4619 91.501 68.917 91.501C67.3516 91.501 66.1689 92.4238 66.1689 93.6475ZM73.3604 93.6475C73.3604 94.7139 73.9893 95.3086 75.3701 95.6436L76.6348 95.9512C77.4209 96.1426 77.8037 96.4844 77.8037 96.9902C77.8037 97.667 77.0928 98.1387 76.1016 98.1387C75.1582 98.1387 74.5703 97.7422 74.3721 97.1201H73.1621C73.292 98.3438 74.4199 99.1299 76.0605 99.1299C77.7354 99.1299 79.0137 98.2207 79.0137 96.9014C79.0137 95.8418 78.3438 95.2402 76.9561 94.9053L75.8213 94.6318C74.9531 94.4199 74.543 94.1055 74.543 93.5996C74.543 92.9434 75.2266 92.499 76.1016 92.499C76.9902 92.499 77.5645 92.8887 77.7217 93.4766H78.8838C78.7266 92.2666 77.6533 91.501 76.1084 91.501C74.543 91.501 73.3604 92.4238 73.3604 93.6475ZM85.2959 95.5889V94.4746H80.8115V95.5889H85.2959ZM87.4629 99H88.6387V94.4336C88.6387 93.3945 89.3838 92.5605 90.3477 92.5605C91.2773 92.5605 91.8857 93.1211 91.8857 93.9961V99H93.0615V94.2627C93.0615 93.3262 93.7451 92.5605 94.7705 92.5605C95.8096 92.5605 96.3223 93.0938 96.3223 94.1807V99H97.498V93.9072C97.498 92.3623 96.6572 91.501 95.1533 91.501C94.1348 91.501 93.2939 92.0137 92.8975 92.793H92.7881C92.4463 92.0273 91.749 91.501 90.751 91.501C89.7666 91.501 89.0283 91.9727 88.6934 92.793H88.584V91.6309H87.4629V99ZM102.584 92.54C103.753 92.54 104.532 93.4014 104.56 94.707H100.499C100.588 93.4014 101.408 92.54 102.584 92.54ZM104.525 97.0928C104.218 97.7422 103.575 98.0908 102.625 98.0908C101.374 98.0908 100.561 97.168 100.499 95.7119V95.6572H105.797V95.2061C105.797 92.916 104.587 91.501 102.598 91.501C100.574 91.501 99.2754 93.0049 99.2754 95.3223C99.2754 97.6533 100.554 99.1299 102.598 99.1299C104.211 99.1299 105.346 98.3574 105.701 97.0928H104.525ZM110.37 99.1299C111.389 99.1299 112.264 98.6445 112.729 97.8242H112.838V99H113.959V88.7051H112.783V92.793H112.681C112.264 91.9863 111.396 91.501 110.37 91.501C108.497 91.501 107.273 93.0049 107.273 95.3154C107.273 97.6328 108.483 99.1299 110.37 99.1299ZM110.644 92.5605C111.977 92.5605 112.811 93.627 112.811 95.3154C112.811 97.0176 111.983 98.0703 110.644 98.0703C109.297 98.0703 108.49 97.0381 108.49 95.3154C108.49 93.5996 109.304 92.5605 110.644 92.5605ZM116.27 99H117.445V91.6309H116.27V99ZM116.857 90.1338C117.309 90.1338 117.678 89.7646 117.678 89.3135C117.678 88.8623 117.309 88.4932 116.857 88.4932C116.406 88.4932 116.037 88.8623 116.037 89.3135C116.037 89.7646 116.406 90.1338 116.857 90.1338ZM121.957 98.0977C121.103 98.0977 120.467 97.6602 120.467 96.9082C120.467 96.1699 120.959 95.7803 122.08 95.7051L124.062 95.5752V96.252C124.062 97.3047 123.167 98.0977 121.957 98.0977ZM121.738 99.1299C122.723 99.1299 123.529 98.6992 124.008 97.9131H124.117V99H125.238V93.9551C125.238 92.4238 124.233 91.501 122.436 91.501C120.863 91.501 119.701 92.2803 119.544 93.4629H120.733C120.897 92.8818 121.513 92.5469 122.395 92.5469C123.495 92.5469 124.062 93.0459 124.062 93.9551V94.625L121.937 94.7549C120.221 94.8574 119.25 95.6162 119.25 96.9355C119.25 98.2822 120.31 99.1299 121.738 99.1299ZM135.027 99.1299C136.894 99.1299 138.117 97.6191 138.117 95.3154C138.117 92.998 136.9 91.501 135.027 91.501C134.016 91.501 133.12 92 132.717 92.793H132.607V88.7051H131.432V99H132.553V97.8242H132.662C133.127 98.6445 134.002 99.1299 135.027 99.1299ZM134.754 92.5605C136.101 92.5605 136.9 93.5928 136.9 95.3154C136.9 97.0381 136.101 98.0703 134.754 98.0703C133.414 98.0703 132.58 97.0176 132.58 95.3154C132.58 93.6133 133.414 92.5605 134.754 92.5605ZM142.232 98.0977C141.378 98.0977 140.742 97.6602 140.742 96.9082C140.742 96.1699 141.234 95.7803 142.355 95.7051L144.338 95.5752V96.252C144.338 97.3047 143.442 98.0977 142.232 98.0977ZM142.014 99.1299C142.998 99.1299 143.805 98.6992 144.283 97.9131H144.393V99H145.514V93.9551C145.514 92.4238 144.509 91.501 142.711 91.501C141.139 91.501 139.977 92.2803 139.819 93.4629H141.009C141.173 92.8818 141.788 92.5469 142.67 92.5469C143.771 92.5469 144.338 93.0459 144.338 93.9551V94.625L142.212 94.7549C140.496 94.8574 139.525 95.6162 139.525 96.9355C139.525 98.2822 140.585 99.1299 142.014 99.1299ZM147.688 99H148.863V94.6387C148.863 93.3467 149.622 92.5605 150.798 92.5605C151.974 92.5605 152.534 93.1895 152.534 94.5156V99H153.71V94.2285C153.71 92.4785 152.787 91.501 151.133 91.501C150.005 91.501 149.287 91.9795 148.918 92.793H148.809V91.6309H147.688V99ZM158.591 99.1299C159.609 99.1299 160.484 98.6445 160.949 97.8242H161.059V99H162.18V88.7051H161.004V92.793H160.901C160.484 91.9863 159.616 91.501 158.591 91.501C156.718 91.501 155.494 93.0049 155.494 95.3154C155.494 97.6328 156.704 99.1299 158.591 99.1299ZM158.864 92.5605C160.197 92.5605 161.031 93.627 161.031 95.3154C161.031 97.0176 160.204 98.0703 158.864 98.0703C157.518 98.0703 156.711 97.0381 156.711 95.3154C156.711 93.5996 157.524 92.5605 158.864 92.5605ZM173.732 91.6309H172.55L171.101 97.5234H170.991L169.344 91.6309H168.216L166.568 97.5234H166.459L165.01 91.6309H163.82L165.885 99H167.074L168.715 93.2988H168.824L170.472 99H171.668L173.732 91.6309ZM175.332 99H176.508V91.6309H175.332V99ZM175.92 90.1338C176.371 90.1338 176.74 89.7646 176.74 89.3135C176.74 88.8623 176.371 88.4932 175.92 88.4932C175.469 88.4932 175.1 88.8623 175.1 89.3135C175.1 89.7646 175.469 90.1338 175.92 90.1338ZM181.478 99.1299C182.496 99.1299 183.371 98.6445 183.836 97.8242H183.945V99H185.066V88.7051H183.891V92.793H183.788C183.371 91.9863 182.503 91.501 181.478 91.501C179.604 91.501 178.381 93.0049 178.381 95.3154C178.381 97.6328 179.591 99.1299 181.478 99.1299ZM181.751 92.5605C183.084 92.5605 183.918 93.627 183.918 95.3154C183.918 97.0176 183.091 98.0703 181.751 98.0703C180.404 98.0703 179.598 97.0381 179.598 95.3154C179.598 93.5996 180.411 92.5605 181.751 92.5605ZM187.842 89.7236V91.6309H186.652V92.6152H187.842V97.0859C187.842 98.4941 188.45 99.0547 189.968 99.0547C190.2 99.0547 190.426 99.0273 190.658 98.9863V97.9951C190.439 98.0156 190.323 98.0225 190.111 98.0225C189.346 98.0225 189.018 97.6533 189.018 96.7852V92.6152H190.658V91.6309H189.018V89.7236H187.842ZM192.504 99H193.68V94.6387C193.68 93.3945 194.404 92.5605 195.724 92.5605C196.838 92.5605 197.426 93.21 197.426 94.5156V99H198.602V94.2285C198.602 92.499 197.617 91.501 196.059 91.501C194.931 91.501 194.158 91.9795 193.789 92.793H193.68V88.7051H192.504V99Z" fill="white"/>
</g>
<defs>
<filter id="filter0_ddd" x="0" y="0" width="272" height="156" filterUnits="userSpaceOnUse" color-interpolation-filters="sRGB">
<feFlood flood-opacity="0" result="BackgroundImageFix"/>
<feColorMatrix in="SourceAlpha" type="matrix" values="0 0 0 0 0 0 0 0 0 0 0 0 0 0 0 0 0 0 127 0" result="hardAlpha"/>
<feMorphology radius="4" operator="erode" in="SourceAlpha" result="effect1_dropShadow"/>
<feOffset dy="3"/>
<feGaussianBlur stdDeviation="3"/>
<feColorMatrix type="matrix" values="0 0 0 0 0 0 0 0 0 0 0 0 0 0 0 0 0 0 0.12 0"/>
<feBlend mode="normal" in2="BackgroundImageFix" result="effect1_dropShadow"/>
<feColorMatrix in="SourceAlpha" type="matrix" values="0 0 0 0 0 0 0 0 0 0 0 0 0 0 0 0 0 0 127 0" result="hardAlpha"/>
<feOffset dy="6"/>
<feGaussianBlur stdDeviation="8"/>
<feColorMatrix type="matrix" values="0 0 0 0 0 0 0 0 0 0 0 0 0 0 0 0 0 0 0.08 0"/>
<feBlend mode="normal" in2="effect1_dropShadow" result="effect2_dropShadow"/>
<feColorMatrix in="SourceAlpha" type="matrix" values="0 0 0 0 0 0 0 0 0 0 0 0 0 0 0 0 0 0 127 0" result="hardAlpha"/>
<feMorphology radius="8" operator="dilate" in="SourceAlpha" result="effect3_dropShadow"/>
<feOffset dy="9"/>
<feGaussianBlur stdDeviation="14"/>
<feColorMatrix type="matrix" values="0 0 0 0 0 0 0 0 0 0 0 0 0 0 0 0 0 0 0.05 0"/>
<feBlend mode="normal" in2="effect2_dropShadow" result="effect3_dropShadow"/>
<feBlend mode="normal" in="SourceGraphic" in2="effect3_dropShadow" result="shape"/>
</filter>
</defs>
</svg>
