<svg width="258" height="139" viewBox="0 0 258 139" fill="none" xmlns="http://www.w3.org/2000/svg">
<g filter="url(#filter0_ddd)">
<path d="M42 32L42 38L42 44L36 38L42 32Z" fill="#262626"/>
<rect x="42" y="16" width="200" height="78" rx="2" fill="#262626"/>
<path d="M51.2578 28.1357V38H54.6416C57.5742 38 59.2969 36.1748 59.2969 33.0645C59.2969 29.9609 57.5674 28.1357 54.6416 28.1357H51.2578ZM52.4883 29.2432H54.5596C56.7471 29.2432 58.0391 30.665 58.0391 33.0781C58.0391 35.4844 56.7607 36.8926 54.5596 36.8926H52.4883V29.2432ZM61.3066 38H62.4824V30.6309H61.3066V38ZM61.8945 29.1338C62.3457 29.1338 62.7148 28.7646 62.7148 28.3135C62.7148 27.8623 62.3457 27.4932 61.8945 27.4932C61.4434 27.4932 61.0742 27.8623 61.0742 28.3135C61.0742 28.7646 61.4434 29.1338 61.8945 29.1338ZM64.5537 32.6475C64.5537 33.7139 65.1826 34.3086 66.5635 34.6436L67.8281 34.9512C68.6143 35.1426 68.9971 35.4844 68.9971 35.9902C68.9971 36.667 68.2861 37.1387 67.2949 37.1387C66.3516 37.1387 65.7637 36.7422 65.5654 36.1201H64.3555C64.4854 37.3438 65.6133 38.1299 67.2539 38.1299C68.9287 38.1299 70.207 37.2207 70.207 35.9014C70.207 34.8418 69.5371 34.2402 68.1494 33.9053L67.0146 33.6318C66.1465 33.4199 65.7363 33.1055 65.7363 32.5996C65.7363 31.9434 66.4199 31.499 67.2949 31.499C68.1836 31.499 68.7578 31.8887 68.915 32.4766H70.0771C69.9199 31.2666 68.8467 30.501 67.3018 30.501C65.7363 30.501 64.5537 31.4238 64.5537 32.6475ZM72.4766 28.7236V30.6309H71.2871V31.6152H72.4766V36.0859C72.4766 37.4941 73.085 38.0547 74.6025 38.0547C74.835 38.0547 75.0605 38.0273 75.293 37.9863V36.9951C75.0742 37.0156 74.958 37.0225 74.7461 37.0225C73.9805 37.0225 73.6523 36.6533 73.6523 35.7852V31.6152H75.293V30.6309H73.6523V28.7236H72.4766ZM77.0977 38H78.2734V30.6309H77.0977V38ZM77.6855 29.1338C78.1367 29.1338 78.5059 28.7646 78.5059 28.3135C78.5059 27.8623 78.1367 27.4932 77.6855 27.4932C77.2344 27.4932 76.8652 27.8623 76.8652 28.3135C76.8652 28.7646 77.2344 29.1338 77.6855 29.1338ZM80.5156 38H81.6914V33.6387C81.6914 32.3467 82.4502 31.5605 83.626 31.5605C84.8018 31.5605 85.3623 32.1895 85.3623 33.5156V38H86.5381V33.2285C86.5381 31.4785 85.6152 30.501 83.9609 30.501C82.833 30.501 82.1152 30.9795 81.7461 31.793H81.6367V30.6309H80.5156V38ZM94.7891 32.8867C94.584 31.5742 93.4902 30.501 91.6992 30.501C89.6348 30.501 88.3223 31.9912 88.3223 34.2881C88.3223 36.6328 89.6416 38.1299 91.7061 38.1299C93.4766 38.1299 94.5771 37.1318 94.7891 35.7783H93.5996C93.3809 36.6123 92.6904 37.0703 91.6992 37.0703C90.3867 37.0703 89.5391 35.9902 89.5391 34.2881C89.5391 32.6201 90.373 31.5605 91.6992 31.5605C92.7588 31.5605 93.4082 32.1553 93.5996 32.8867H94.7891ZM97.1543 28.7236V30.6309H95.9648V31.6152H97.1543V36.0859C97.1543 37.4941 97.7627 38.0547 99.2803 38.0547C99.5127 38.0547 99.7383 38.0273 99.9707 37.9863V36.9951C99.752 37.0156 99.6357 37.0225 99.4238 37.0225C98.6582 37.0225 98.3301 36.6533 98.3301 35.7852V31.6152H99.9707V30.6309H98.3301V28.7236H97.1543ZM101.775 38H102.951V30.6309H101.775V38ZM102.363 29.1338C102.814 29.1338 103.184 28.7646 103.184 28.3135C103.184 27.8623 102.814 27.4932 102.363 27.4932C101.912 27.4932 101.543 27.8623 101.543 28.3135C101.543 28.7646 101.912 29.1338 102.363 29.1338ZM111.209 30.6309H109.951L107.935 36.7012H107.825L105.809 30.6309H104.551L107.278 38H108.481L111.209 30.6309ZM115.447 31.54C116.616 31.54 117.396 32.4014 117.423 33.707H113.362C113.451 32.4014 114.271 31.54 115.447 31.54ZM117.389 36.0928C117.081 36.7422 116.438 37.0908 115.488 37.0908C114.237 37.0908 113.424 36.168 113.362 34.7119V34.6572H118.66V34.2061C118.66 31.916 117.45 30.501 115.461 30.501C113.438 30.501 112.139 32.0049 112.139 34.3223C112.139 36.6533 113.417 38.1299 115.461 38.1299C117.074 38.1299 118.209 37.3574 118.564 36.0928H117.389ZM120.574 38H121.75V27.7051H120.574V38ZM124.662 40.666C125.968 40.666 126.556 40.1602 127.185 38.4512L130.062 30.6309H128.812L126.795 36.6943H126.686L124.662 30.6309H123.391L126.118 38.0068L125.981 38.4443C125.674 39.333 125.305 39.6543 124.628 39.6543C124.464 39.6543 124.279 39.6475 124.136 39.6201V40.625C124.3 40.6523 124.505 40.666 124.662 40.666ZM135.586 38H136.762V33.4336C136.762 32.3945 137.507 31.5605 138.471 31.5605C139.4 31.5605 140.009 32.1211 140.009 32.9961V38H141.185V33.2627C141.185 32.3262 141.868 31.5605 142.894 31.5605C143.933 31.5605 144.445 32.0938 144.445 33.1807V38H145.621V32.9072C145.621 31.3623 144.78 30.501 143.276 30.501C142.258 30.501 141.417 31.0137 141.021 31.793H140.911C140.569 31.0273 139.872 30.501 138.874 30.501C137.89 30.501 137.151 30.9727 136.816 31.793H136.707V30.6309H135.586V38ZM150.796 38.1299C152.895 38.1299 154.193 36.6807 154.193 34.3154C154.193 31.9434 152.895 30.501 150.796 30.501C148.697 30.501 147.398 31.9434 147.398 34.3154C147.398 36.6807 148.697 38.1299 150.796 38.1299ZM150.796 37.0703C149.401 37.0703 148.615 36.0586 148.615 34.3154C148.615 32.5654 149.401 31.5605 150.796 31.5605C152.19 31.5605 152.977 32.5654 152.977 34.3154C152.977 36.0586 152.19 37.0703 150.796 37.0703ZM156.039 38H157.215V33.6387C157.215 32.3467 157.974 31.5605 159.149 31.5605C160.325 31.5605 160.886 32.1895 160.886 33.5156V38H162.062V33.2285C162.062 31.4785 161.139 30.501 159.484 30.501C158.356 30.501 157.639 30.9795 157.27 31.793H157.16V30.6309H156.039V38ZM167.154 31.54C168.323 31.54 169.103 32.4014 169.13 33.707H165.069C165.158 32.4014 165.979 31.54 167.154 31.54ZM169.096 36.0928C168.788 36.7422 168.146 37.0908 167.195 37.0908C165.944 37.0908 165.131 36.168 165.069 34.7119V34.6572H170.367V34.2061C170.367 31.916 169.157 30.501 167.168 30.501C165.145 30.501 163.846 32.0049 163.846 34.3223C163.846 36.6533 165.124 38.1299 167.168 38.1299C168.781 38.1299 169.916 37.3574 170.271 36.0928H169.096ZM172.705 28.7236V30.6309H171.516V31.6152H172.705V36.0859C172.705 37.4941 173.313 38.0547 174.831 38.0547C175.063 38.0547 175.289 38.0273 175.521 37.9863V36.9951C175.303 37.0156 175.187 37.0225 174.975 37.0225C174.209 37.0225 173.881 36.6533 173.881 35.7852V31.6152H175.521V30.6309H173.881V28.7236H172.705ZM177.326 38H178.502V30.6309H177.326V38ZM177.914 29.1338C178.365 29.1338 178.734 28.7646 178.734 28.3135C178.734 27.8623 178.365 27.4932 177.914 27.4932C177.463 27.4932 177.094 27.8623 177.094 28.3135C177.094 28.7646 177.463 29.1338 177.914 29.1338ZM180.573 38H186.247V37.0156H181.995V36.9062L186.227 31.5127V30.6309H180.58V31.6152H184.825V31.7246L180.573 37.1387V38ZM191.025 31.54C192.194 31.54 192.974 32.4014 193.001 33.707H188.94C189.029 32.4014 189.85 31.54 191.025 31.54ZM192.967 36.0928C192.659 36.7422 192.017 37.0908 191.066 37.0908C189.815 37.0908 189.002 36.168 188.94 34.7119V34.6572H194.238V34.2061C194.238 31.916 193.028 30.501 191.039 30.501C189.016 30.501 187.717 32.0049 187.717 34.3223C187.717 36.6533 188.995 38.1299 191.039 38.1299C192.652 38.1299 193.787 37.3574 194.143 36.0928H192.967ZM206.133 32.8867C205.928 31.5742 204.834 30.501 203.043 30.501C200.979 30.501 199.666 31.9912 199.666 34.2881C199.666 36.6328 200.985 38.1299 203.05 38.1299C204.82 38.1299 205.921 37.1318 206.133 35.7783H204.943C204.725 36.6123 204.034 37.0703 203.043 37.0703C201.73 37.0703 200.883 35.9902 200.883 34.2881C200.883 32.6201 201.717 31.5605 203.043 31.5605C204.103 31.5605 204.752 32.1553 204.943 32.8867H206.133ZM210.897 38.1299C212.996 38.1299 214.295 36.6807 214.295 34.3154C214.295 31.9434 212.996 30.501 210.897 30.501C208.799 30.501 207.5 31.9434 207.5 34.3154C207.5 36.6807 208.799 38.1299 210.897 38.1299ZM210.897 37.0703C209.503 37.0703 208.717 36.0586 208.717 34.3154C208.717 32.5654 209.503 31.5605 210.897 31.5605C212.292 31.5605 213.078 32.5654 213.078 34.3154C213.078 36.0586 212.292 37.0703 210.897 37.0703ZM215.97 32.6475C215.97 33.7139 216.599 34.3086 217.979 34.6436L219.244 34.9512C220.03 35.1426 220.413 35.4844 220.413 35.9902C220.413 36.667 219.702 37.1387 218.711 37.1387C217.768 37.1387 217.18 36.7422 216.981 36.1201H215.771C215.901 37.3438 217.029 38.1299 218.67 38.1299C220.345 38.1299 221.623 37.2207 221.623 35.9014C221.623 34.8418 220.953 34.2402 219.565 33.9053L218.431 33.6318C217.562 33.4199 217.152 33.1055 217.152 32.5996C217.152 31.9434 217.836 31.499 218.711 31.499C219.6 31.499 220.174 31.8887 220.331 32.4766H221.493C221.336 31.2666 220.263 30.501 218.718 30.501C217.152 30.501 215.97 31.4238 215.97 32.6475ZM223.893 28.7236V30.6309H222.703V31.6152H223.893V36.0859C223.893 37.4941 224.501 38.0547 226.019 38.0547C226.251 38.0547 226.477 38.0273 226.709 37.9863V36.9951C226.49 37.0156 226.374 37.0225 226.162 37.0225C225.396 37.0225 225.068 36.6533 225.068 35.7852V31.6152H226.709V30.6309H225.068V28.7236H223.893ZM54.0469 53.54C55.2158 53.54 55.9951 54.4014 56.0225 55.707H51.9619C52.0508 54.4014 52.8711 53.54 54.0469 53.54ZM55.9883 58.0928C55.6807 58.7422 55.0381 59.0908 54.0879 59.0908C52.8369 59.0908 52.0234 58.168 51.9619 56.7119V56.6572H57.2598V56.2061C57.2598 53.916 56.0498 52.501 54.0605 52.501C52.0371 52.501 50.7383 54.0049 50.7383 56.3223C50.7383 58.6533 52.0166 60.1299 54.0605 60.1299C55.6738 60.1299 56.8086 59.3574 57.1641 58.0928H55.9883ZM59.5977 60H60.7734V53.6152H62.4619V52.6309H60.7734V51.8447C60.7734 51.0381 61.1289 50.6279 61.9766 50.6279C62.1885 50.6279 62.3867 50.6348 62.5303 50.6621V49.7051C62.2842 49.6572 62.0244 49.6367 61.7373 49.6367C60.3359 49.6367 59.5977 50.3408 59.5977 51.8105V52.6309H58.374V53.6152H59.5977V60ZM64.6699 60H65.8457V53.6152H67.5342V52.6309H65.8457V51.8447C65.8457 51.0381 66.2012 50.6279 67.0488 50.6279C67.2607 50.6279 67.459 50.6348 67.6025 50.6621V49.7051C67.3564 49.6572 67.0967 49.6367 66.8096 49.6367C65.4082 49.6367 64.6699 50.3408 64.6699 51.8105V52.6309H63.4463V53.6152H64.6699V60ZM71.875 53.54C73.0439 53.54 73.8232 54.4014 73.8506 55.707H69.79C69.8789 54.4014 70.6992 53.54 71.875 53.54ZM73.8164 58.0928C73.5088 58.7422 72.8662 59.0908 71.916 59.0908C70.665 59.0908 69.8516 58.168 69.79 56.7119V56.6572H75.0879V56.2061C75.0879 53.916 73.8779 52.501 71.8887 52.501C69.8652 52.501 68.5664 54.0049 68.5664 56.3223C68.5664 58.6533 69.8447 60.1299 71.8887 60.1299C73.502 60.1299 74.6367 59.3574 74.9922 58.0928H73.8164ZM83.0312 54.8867C82.8262 53.5742 81.7324 52.501 79.9414 52.501C77.877 52.501 76.5645 53.9912 76.5645 56.2881C76.5645 58.6328 77.8838 60.1299 79.9482 60.1299C81.7188 60.1299 82.8193 59.1318 83.0312 57.7783H81.8418C81.623 58.6123 80.9326 59.0703 79.9414 59.0703C78.6289 59.0703 77.7812 57.9902 77.7812 56.2881C77.7812 54.6201 78.6152 53.5605 79.9414 53.5605C81.001 53.5605 81.6504 54.1553 81.8418 54.8867H83.0312ZM85.3965 50.7236V52.6309H84.207V53.6152H85.3965V58.0859C85.3965 59.4941 86.0049 60.0547 87.5225 60.0547C87.7549 60.0547 87.9805 60.0273 88.2129 59.9863V58.9951C87.9941 59.0156 87.8779 59.0225 87.666 59.0225C86.9004 59.0225 86.5723 58.6533 86.5723 57.7852V53.6152H88.2129V52.6309H86.5723V50.7236H85.3965ZM90.0176 60H91.1934V52.6309H90.0176V60ZM90.6055 51.1338C91.0566 51.1338 91.4258 50.7646 91.4258 50.3135C91.4258 49.8623 91.0566 49.4932 90.6055 49.4932C90.1543 49.4932 89.7852 49.8623 89.7852 50.3135C89.7852 50.7646 90.1543 51.1338 90.6055 51.1338ZM99.4512 52.6309H98.1934L96.1768 58.7012H96.0674L94.0508 52.6309H92.793L95.5205 60H96.7236L99.4512 52.6309ZM103.689 53.54C104.858 53.54 105.638 54.4014 105.665 55.707H101.604C101.693 54.4014 102.514 53.54 103.689 53.54ZM105.631 58.0928C105.323 58.7422 104.681 59.0908 103.73 59.0908C102.479 59.0908 101.666 58.168 101.604 56.7119V56.6572H106.902V56.2061C106.902 53.916 105.692 52.501 103.703 52.501C101.68 52.501 100.381 54.0049 100.381 56.3223C100.381 58.6533 101.659 60.1299 103.703 60.1299C105.316 60.1299 106.451 59.3574 106.807 58.0928H105.631ZM112.699 60H113.875V55.6387C113.875 54.3467 114.634 53.5605 115.81 53.5605C116.985 53.5605 117.546 54.1895 117.546 55.5156V60H118.722V55.2285C118.722 53.4785 117.799 52.501 116.145 52.501C115.017 52.501 114.299 52.9795 113.93 53.793H113.82V52.6309H112.699V60ZM123.814 53.54C124.983 53.54 125.763 54.4014 125.79 55.707H121.729C121.818 54.4014 122.639 53.54 123.814 53.54ZM125.756 58.0928C125.448 58.7422 124.806 59.0908 123.855 59.0908C122.604 59.0908 121.791 58.168 121.729 56.7119V56.6572H127.027V56.2061C127.027 53.916 125.817 52.501 123.828 52.501C121.805 52.501 120.506 54.0049 120.506 56.3223C120.506 58.6533 121.784 60.1299 123.828 60.1299C125.441 60.1299 126.576 59.3574 126.932 58.0928H125.756ZM129.365 50.7236V52.6309H128.176V53.6152H129.365V58.0859C129.365 59.4941 129.974 60.0547 131.491 60.0547C131.724 60.0547 131.949 60.0273 132.182 59.9863V58.9951C131.963 59.0156 131.847 59.0225 131.635 59.0225C130.869 59.0225 130.541 58.6533 130.541 57.7852V53.6152H132.182V52.6309H130.541V50.7236H129.365ZM143.229 52.6309H142.046L140.597 58.5234H140.487L138.84 52.6309H137.712L136.064 58.5234H135.955L134.506 52.6309H133.316L135.381 60H136.57L138.211 54.2988H138.32L139.968 60H141.164L143.229 52.6309ZM147.556 60.1299C149.654 60.1299 150.953 58.6807 150.953 56.3154C150.953 53.9434 149.654 52.501 147.556 52.501C145.457 52.501 144.158 53.9434 144.158 56.3154C144.158 58.6807 145.457 60.1299 147.556 60.1299ZM147.556 59.0703C146.161 59.0703 145.375 58.0586 145.375 56.3154C145.375 54.5654 146.161 53.5605 147.556 53.5605C148.95 53.5605 149.736 54.5654 149.736 56.3154C149.736 58.0586 148.95 59.0703 147.556 59.0703ZM152.799 60H153.975V55.4336C153.975 54.3945 154.788 53.6426 155.909 53.6426C156.142 53.6426 156.565 53.6836 156.661 53.7109V52.5352C156.511 52.5146 156.265 52.501 156.073 52.501C155.096 52.501 154.248 53.0068 154.029 53.7246H153.92V52.6309H152.799V60ZM159.484 55.8506H159.375V49.7051H158.199V60H159.375V57.2041L160.079 56.5479L162.841 60H164.338L160.954 55.7891L164.126 52.6309H162.684L159.484 55.8506ZM165.288 54.6475C165.288 55.7139 165.917 56.3086 167.298 56.6436L168.562 56.9512C169.349 57.1426 169.731 57.4844 169.731 57.9902C169.731 58.667 169.021 59.1387 168.029 59.1387C167.086 59.1387 166.498 58.7422 166.3 58.1201H165.09C165.22 59.3438 166.348 60.1299 167.988 60.1299C169.663 60.1299 170.941 59.2207 170.941 57.9014C170.941 56.8418 170.271 56.2402 168.884 55.9053L167.749 55.6318C166.881 55.4199 166.471 55.1055 166.471 54.5996C166.471 53.9434 167.154 53.499 168.029 53.499C168.918 53.499 169.492 53.8887 169.649 54.4766H170.812C170.654 53.2666 169.581 52.501 168.036 52.501C166.471 52.501 165.288 53.4238 165.288 54.6475ZM177.23 60H178.406V53.6152H180.095V52.6309H178.406V51.8447C178.406 51.0381 178.762 50.6279 179.609 50.6279C179.821 50.6279 180.02 50.6348 180.163 50.6621V49.7051C179.917 49.6572 179.657 49.6367 179.37 49.6367C177.969 49.6367 177.23 50.3408 177.23 51.8105V52.6309H176.007V53.6152H177.23V60ZM184.524 60.1299C186.623 60.1299 187.922 58.6807 187.922 56.3154C187.922 53.9434 186.623 52.501 184.524 52.501C182.426 52.501 181.127 53.9434 181.127 56.3154C181.127 58.6807 182.426 60.1299 184.524 60.1299ZM184.524 59.0703C183.13 59.0703 182.344 58.0586 182.344 56.3154C182.344 54.5654 183.13 53.5605 184.524 53.5605C185.919 53.5605 186.705 54.5654 186.705 56.3154C186.705 58.0586 185.919 59.0703 184.524 59.0703ZM189.768 60H190.943V55.4336C190.943 54.3945 191.757 53.6426 192.878 53.6426C193.11 53.6426 193.534 53.6836 193.63 53.7109V52.5352C193.479 52.5146 193.233 52.501 193.042 52.501C192.064 52.501 191.217 53.0068 190.998 53.7246H190.889V52.6309H189.768V60ZM57.2051 76.8867C57 75.5742 55.9062 74.501 54.1152 74.501C52.0508 74.501 50.7383 75.9912 50.7383 78.2881C50.7383 80.6328 52.0576 82.1299 54.1221 82.1299C55.8926 82.1299 56.9932 81.1318 57.2051 79.7783H56.0156C55.7969 80.6123 55.1064 81.0703 54.1152 81.0703C52.8027 81.0703 51.9551 79.9902 51.9551 78.2881C51.9551 76.6201 52.7891 75.5605 54.1152 75.5605C55.1748 75.5605 55.8242 76.1553 56.0156 76.8867H57.2051ZM58.9414 82H60.1172V77.4336C60.1172 76.3945 60.9307 75.6426 62.0518 75.6426C62.2842 75.6426 62.708 75.6836 62.8037 75.7109V74.5352C62.6533 74.5146 62.4072 74.501 62.2158 74.501C61.2383 74.501 60.3906 75.0068 60.1719 75.7246H60.0625V74.6309H58.9414V82ZM67.0967 82.1299C69.1953 82.1299 70.4941 80.6807 70.4941 78.3154C70.4941 75.9434 69.1953 74.501 67.0967 74.501C64.998 74.501 63.6992 75.9434 63.6992 78.3154C63.6992 80.6807 64.998 82.1299 67.0967 82.1299ZM67.0967 81.0703C65.7021 81.0703 64.916 80.0586 64.916 78.3154C64.916 76.5654 65.7021 75.5605 67.0967 75.5605C68.4912 75.5605 69.2773 76.5654 69.2773 78.3154C69.2773 80.0586 68.4912 81.0703 67.0967 81.0703ZM72.1689 76.6475C72.1689 77.7139 72.7979 78.3086 74.1787 78.6436L75.4434 78.9512C76.2295 79.1426 76.6123 79.4844 76.6123 79.9902C76.6123 80.667 75.9014 81.1387 74.9102 81.1387C73.9668 81.1387 73.3789 80.7422 73.1807 80.1201H71.9707C72.1006 81.3438 73.2285 82.1299 74.8691 82.1299C76.5439 82.1299 77.8223 81.2207 77.8223 79.9014C77.8223 78.8418 77.1523 78.2402 75.7646 77.9053L74.6299 77.6318C73.7617 77.4199 73.3516 77.1055 73.3516 76.5996C73.3516 75.9434 74.0352 75.499 74.9102 75.499C75.7988 75.499 76.373 75.8887 76.5303 76.4766H77.6924C77.5352 75.2666 76.4619 74.501 74.917 74.501C73.3516 74.501 72.1689 75.4238 72.1689 76.6475ZM79.3604 76.6475C79.3604 77.7139 79.9893 78.3086 81.3701 78.6436L82.6348 78.9512C83.4209 79.1426 83.8037 79.4844 83.8037 79.9902C83.8037 80.667 83.0928 81.1387 82.1016 81.1387C81.1582 81.1387 80.5703 80.7422 80.3721 80.1201H79.1621C79.292 81.3438 80.4199 82.1299 82.0605 82.1299C83.7354 82.1299 85.0137 81.2207 85.0137 79.9014C85.0137 78.8418 84.3438 78.2402 82.9561 77.9053L81.8213 77.6318C80.9531 77.4199 80.543 77.1055 80.543 76.5996C80.543 75.9434 81.2266 75.499 82.1016 75.499C82.9902 75.499 83.5645 75.8887 83.7217 76.4766H84.8838C84.7266 75.2666 83.6533 74.501 82.1084 74.501C80.543 74.501 79.3604 75.4238 79.3604 76.6475ZM91.2959 78.5889V77.4746H86.8115V78.5889H91.2959ZM93.4629 82H94.6387V77.4336C94.6387 76.3945 95.3838 75.5605 96.3477 75.5605C97.2773 75.5605 97.8857 76.1211 97.8857 76.9961V82H99.0615V77.2627C99.0615 76.3262 99.7451 75.5605 100.771 75.5605C101.81 75.5605 102.322 76.0938 102.322 77.1807V82H103.498V76.9072C103.498 75.3623 102.657 74.501 101.153 74.501C100.135 74.501 99.2939 75.0137 98.8975 75.793H98.7881C98.4463 75.0273 97.749 74.501 96.751 74.501C95.7666 74.501 95.0283 74.9727 94.6934 75.793H94.584V74.6309H93.4629V82ZM108.584 75.54C109.753 75.54 110.532 76.4014 110.56 77.707H106.499C106.588 76.4014 107.408 75.54 108.584 75.54ZM110.525 80.0928C110.218 80.7422 109.575 81.0908 108.625 81.0908C107.374 81.0908 106.561 80.168 106.499 78.7119V78.6572H111.797V78.2061C111.797 75.916 110.587 74.501 108.598 74.501C106.574 74.501 105.275 76.0049 105.275 78.3223C105.275 80.6533 106.554 82.1299 108.598 82.1299C110.211 82.1299 111.346 81.3574 111.701 80.0928H110.525ZM116.37 82.1299C117.389 82.1299 118.264 81.6445 118.729 80.8242H118.838V82H119.959V71.7051H118.783V75.793H118.681C118.264 74.9863 117.396 74.501 116.37 74.501C114.497 74.501 113.273 76.0049 113.273 78.3154C113.273 80.6328 114.483 82.1299 116.37 82.1299ZM116.644 75.5605C117.977 75.5605 118.811 76.627 118.811 78.3154C118.811 80.0176 117.983 81.0703 116.644 81.0703C115.297 81.0703 114.49 80.0381 114.49 78.3154C114.49 76.5996 115.304 75.5605 116.644 75.5605ZM122.27 82H123.445V74.6309H122.27V82ZM122.857 73.1338C123.309 73.1338 123.678 72.7646 123.678 72.3135C123.678 71.8623 123.309 71.4932 122.857 71.4932C122.406 71.4932 122.037 71.8623 122.037 72.3135C122.037 72.7646 122.406 73.1338 122.857 73.1338ZM127.957 81.0977C127.103 81.0977 126.467 80.6602 126.467 79.9082C126.467 79.1699 126.959 78.7803 128.08 78.7051L130.062 78.5752V79.252C130.062 80.3047 129.167 81.0977 127.957 81.0977ZM127.738 82.1299C128.723 82.1299 129.529 81.6992 130.008 80.9131H130.117V82H131.238V76.9551C131.238 75.4238 130.233 74.501 128.436 74.501C126.863 74.501 125.701 75.2803 125.544 76.4629H126.733C126.897 75.8818 127.513 75.5469 128.395 75.5469C129.495 75.5469 130.062 76.0459 130.062 76.9551V77.625L127.937 77.7549C126.221 77.8574 125.25 78.6162 125.25 79.9355C125.25 81.2822 126.31 82.1299 127.738 82.1299ZM141.027 82.1299C142.894 82.1299 144.117 80.6191 144.117 78.3154C144.117 75.998 142.9 74.501 141.027 74.501C140.016 74.501 139.12 75 138.717 75.793H138.607V71.7051H137.432V82H138.553V80.8242H138.662C139.127 81.6445 140.002 82.1299 141.027 82.1299ZM140.754 75.5605C142.101 75.5605 142.9 76.5928 142.9 78.3154C142.9 80.0381 142.101 81.0703 140.754 81.0703C139.414 81.0703 138.58 80.0176 138.58 78.3154C138.58 76.6133 139.414 75.5605 140.754 75.5605ZM148.232 81.0977C147.378 81.0977 146.742 80.6602 146.742 79.9082C146.742 79.1699 147.234 78.7803 148.355 78.7051L150.338 78.5752V79.252C150.338 80.3047 149.442 81.0977 148.232 81.0977ZM148.014 82.1299C148.998 82.1299 149.805 81.6992 150.283 80.9131H150.393V82H151.514V76.9551C151.514 75.4238 150.509 74.501 148.711 74.501C147.139 74.501 145.977 75.2803 145.819 76.4629H147.009C147.173 75.8818 147.788 75.5469 148.67 75.5469C149.771 75.5469 150.338 76.0459 150.338 76.9551V77.625L148.212 77.7549C146.496 77.8574 145.525 78.6162 145.525 79.9355C145.525 81.2822 146.585 82.1299 148.014 82.1299ZM153.688 82H154.863V77.6387C154.863 76.3467 155.622 75.5605 156.798 75.5605C157.974 75.5605 158.534 76.1895 158.534 77.5156V82H159.71V77.2285C159.71 75.4785 158.787 74.501 157.133 74.501C156.005 74.501 155.287 74.9795 154.918 75.793H154.809V74.6309H153.688V82ZM164.591 82.1299C165.609 82.1299 166.484 81.6445 166.949 80.8242H167.059V82H168.18V71.7051H167.004V75.793H166.901C166.484 74.9863 165.616 74.501 164.591 74.501C162.718 74.501 161.494 76.0049 161.494 78.3154C161.494 80.6328 162.704 82.1299 164.591 82.1299ZM164.864 75.5605C166.197 75.5605 167.031 76.627 167.031 78.3154C167.031 80.0176 166.204 81.0703 164.864 81.0703C163.518 81.0703 162.711 80.0381 162.711 78.3154C162.711 76.5996 163.524 75.5605 164.864 75.5605ZM179.732 74.6309H178.55L177.101 80.5234H176.991L175.344 74.6309H174.216L172.568 80.5234H172.459L171.01 74.6309H169.82L171.885 82H173.074L174.715 76.2988H174.824L176.472 82H177.668L179.732 74.6309ZM181.332 82H182.508V74.6309H181.332V82ZM181.92 73.1338C182.371 73.1338 182.74 72.7646 182.74 72.3135C182.74 71.8623 182.371 71.4932 181.92 71.4932C181.469 71.4932 181.1 71.8623 181.1 72.3135C181.1 72.7646 181.469 73.1338 181.92 73.1338ZM187.478 82.1299C188.496 82.1299 189.371 81.6445 189.836 80.8242H189.945V82H191.066V71.7051H189.891V75.793H189.788C189.371 74.9863 188.503 74.501 187.478 74.501C185.604 74.501 184.381 76.0049 184.381 78.3154C184.381 80.6328 185.591 82.1299 187.478 82.1299ZM187.751 75.5605C189.084 75.5605 189.918 76.627 189.918 78.3154C189.918 80.0176 189.091 81.0703 187.751 81.0703C186.404 81.0703 185.598 80.0381 185.598 78.3154C185.598 76.5996 186.411 75.5605 187.751 75.5605ZM193.842 72.7236V74.6309H192.652V75.6152H193.842V80.0859C193.842 81.4941 194.45 82.0547 195.968 82.0547C196.2 82.0547 196.426 82.0273 196.658 81.9863V80.9951C196.439 81.0156 196.323 81.0225 196.111 81.0225C195.346 81.0225 195.018 80.6533 195.018 79.7852V75.6152H196.658V74.6309H195.018V72.7236H193.842ZM198.504 82H199.68V77.6387C199.68 76.3945 200.404 75.5605 201.724 75.5605C202.838 75.5605 203.426 76.21 203.426 77.5156V82H204.602V77.2285C204.602 75.499 203.617 74.501 202.059 74.501C200.931 74.501 200.158 74.9795 199.789 75.793H199.68V71.7051H198.504V82Z" fill="white"/>
</g>
<defs>
<filter id="filter0_ddd" x="0" y="-11" width="278" height="150" filterUnits="userSpaceOnUse" color-interpolation-filters="sRGB">
<feFlood flood-opacity="0" result="BackgroundImageFix"/>
<feColorMatrix in="SourceAlpha" type="matrix" values="0 0 0 0 0 0 0 0 0 0 0 0 0 0 0 0 0 0 127 0" result="hardAlpha"/>
<feMorphology radius="4" operator="erode" in="SourceAlpha" result="effect1_dropShadow"/>
<feOffset dy="3"/>
<feGaussianBlur stdDeviation="3"/>
<feColorMatrix type="matrix" values="0 0 0 0 0 0 0 0 0 0 0 0 0 0 0 0 0 0 0.12 0"/>
<feBlend mode="normal" in2="BackgroundImageFix" result="effect1_dropShadow"/>
<feColorMatrix in="SourceAlpha" type="matrix" values="0 0 0 0 0 0 0 0 0 0 0 0 0 0 0 0 0 0 127 0" result="hardAlpha"/>
<feOffset dy="6"/>
<feGaussianBlur stdDeviation="8"/>
<feColorMatrix type="matrix" values="0 0 0 0 0 0 0 0 0 0 0 0 0 0 0 0 0 0 0.08 0"/>
<feBlend mode="normal" in2="effect1_dropShadow" result="effect2_dropShadow"/>
<feColorMatrix in="SourceAlpha" type="matrix" values="0 0 0 0 0 0 0 0 0 0 0 0 0 0 0 0 0 0 127 0" result="hardAlpha"/>
<feMorphology radius="8" operator="dilate" in="SourceAlpha" result="effect3_dropShadow"/>
<feOffset dy="9"/>
<feGaussianBlur stdDeviation="14"/>
<feColorMatrix type="matrix" values="0 0 0 0 0 0 0 0 0 0 0 0 0 0 0 0 0 0 0.05 0"/>
<feBlend mode="normal" in2="effect2_dropShadow" result="effect3_dropShadow"/>
<feBlend mode="normal" in="SourceGraphic" in2="effect3_dropShadow" result="shape"/>
</filter>
</defs>
</svg>
