<svg width="19" height="17" viewBox="0 0 19 17" fill="none" xmlns="http://www.w3.org/2000/svg">
<g clip-path="url(#clip0)">
<path d="M2.24403 8.25192C1.81568 7.82346 1.48389 7.30837 1.2709 6.74118C1.05792 6.174 0.968659 5.56783 1.00911 4.96332C1.04957 4.35882 1.2188 3.76995 1.50547 3.2362C1.79213 2.70245 2.1896 2.23616 2.67123 1.8686C3.15285 1.50104 3.70749 1.24069 4.29796 1.10503C4.88844 0.969365 5.50109 0.961514 6.09485 1.082C6.6886 1.20249 7.24974 1.44854 7.74062 1.80364C8.2315 2.15874 8.64079 2.6147 8.94103 3.14092H10.059C10.3593 2.6147 10.7686 2.15874 11.2595 1.80364C11.7503 1.44854 12.3115 1.20249 12.9052 1.082C13.499 0.961514 14.1116 0.969365 14.7021 1.10503C15.2926 1.24069 15.8472 1.50104 16.3288 1.8686C16.8105 2.23616 17.2079 2.70245 17.4946 3.2362C17.7813 3.76995 17.9505 4.35882 17.991 4.96332C18.0314 5.56783 17.9422 6.174 17.7292 6.74118C17.5162 7.30837 17.1844 7.82346 16.756 8.25192L9.50003 15.5099L2.24403 8.25292V8.25192ZM17.462 8.96192C17.9742 8.44975 18.3748 7.83714 18.6387 7.16262C18.9026 6.48811 19.0241 5.76629 18.9955 5.04255C18.9669 4.31882 18.7889 3.60882 18.4726 2.95723C18.1563 2.30563 17.7086 1.72653 17.1577 1.25634C16.6067 0.786151 15.9645 0.43505 15.2713 0.225116C14.578 0.0151828 13.8489 -0.0490406 13.1297 0.0364848C12.4104 0.12201 11.7167 0.355434 11.092 0.722076C10.4674 1.08872 9.92535 1.58065 9.50003 2.16692C9.07472 1.58065 8.5327 1.08872 7.90805 0.722076C7.2834 0.355434 6.58964 0.12201 5.87041 0.0364848C5.15117 -0.0490406 4.42202 0.0151828 3.72881 0.225116C3.0356 0.43505 2.39333 0.786151 1.84239 1.25634C1.29145 1.72653 0.843762 2.30563 0.52748 2.95723C0.211198 3.60882 0.0331654 4.31882 0.00457904 5.04255C-0.0240073 5.76629 0.0974711 6.48811 0.361374 7.16262C0.625278 7.83714 1.0259 8.44975 1.53803 8.96192L9.50003 16.9229L17.462 8.96292V8.96192Z" fill="#D80404"/>
<path d="M10.2998 5.12329C10.2998 4.87747 10.2083 4.41434 10.5254 4.32106C10.7142 4.26554 10.8999 4.20309 11.0895 4.15185C11.6645 3.99642 12.2777 3.5868 12.6689 3.1522C12.8048 3.00114 12.966 2.82608 13.0042 2.61634C13.0324 2.46109 12.4933 2.52025 12.3994 2.54114C12.2089 2.58346 12.1356 2.76475 11.992 2.8545C11.8874 2.91988 11.7794 3.05792 11.992 2.95165C12.2933 2.80101 12.626 2.73569 12.954 2.69469C13.1243 2.6734 13.2937 2.6026 13.4585 2.5568C13.647 2.50445 13.851 2.57063 14.0351 2.51607C14.6066 2.34674 13.631 2.19016 13.4303 2.19016C12.9901 2.19016 12.669 2.51246 12.2991 2.74169C11.831 3.03175 11.3663 3.33394 10.9203 3.65672C10.7462 3.78266 10.3932 3.90781 10.2873 4.10797C10.2166 4.24145 10.5384 4.0649 10.5693 4.05157C10.8804 3.91723 11.1565 3.76845 11.4906 3.68493C12.0183 3.553 12.5785 3.48456 13.117 3.40603C13.4309 3.36024 13.7521 3.27352 14.0665 3.26188C14.2589 3.25475 14.4775 3.07619 14.6713 3.03312C14.9268 2.97634 14.9798 2.88697 15.041 2.67275C15.0614 2.60166 15.1553 2.74092 15.1852 2.75423C15.3224 2.81521 15.4489 2.88194 15.5894 2.93598C16.0035 3.09521 16.1605 3.6957 16.3478 4.05157C16.6872 4.69636 16.7516 5.40912 16.6706 6.1386C16.6115 6.67039 16.0965 7.51478 15.6835 7.85272C15.3482 8.12699 14.8799 8.24074 14.477 8.36664C14.1212 8.47782 14.3814 7.12411 14.4049 6.92828C14.4377 6.65543 14.7637 4.9826 14.4457 4.84125C13.6105 4.47006 12.4563 5.47878 11.9794 6.03832C11.3384 6.79054 10.9423 7.75308 10.7636 8.72075C10.6876 9.13217 10.5601 9.89235 10.7197 10.3001C10.8276 10.5758 11.3284 10.4889 11.547 10.4693C12.3599 10.3968 13.0744 9.95722 13.6434 9.38822C14.0069 9.02476 14.6845 7.63901 13.6403 7.84332C12.9486 7.97864 12.2006 8.58962 11.8228 9.15633C11.4266 9.75064 11.2147 10.4698 10.9892 11.1462C10.8817 11.4688 10.7699 11.7562 10.5944 12.0487C10.4736 12.2499 10.2602 12.4288 10.1619 12.6253C10.0624 12.8244 10.1613 12.6596 10.2434 12.5658C10.467 12.3102 10.7274 12.1083 10.9892 11.892C11.3121 11.6253 11.6008 11.3162 11.923 11.0459C12.1458 10.8591 12.4122 10.7473 12.6407 10.5696C12.8986 10.369 12.0963 10.9427 11.8792 11.1869C11.5664 11.5388 11.2257 11.882 10.9641 12.2743C10.8521 12.4423 10.6976 12.5769 10.5818 12.7507C10.4942 12.882 10.4206 13.0381 10.3249 13.1612C10.1928 13.331 10.0566 13.4974 9.90495 13.6406C9.7932 13.7462 9.64848 13.9224 9.51011 13.9916C9.43178 14.0308 9.39584 13.4321 9.38476 13.3335C9.28037 12.4044 9.11054 11.4802 9.03692 10.5477C8.96722 9.66478 8.92667 8.79699 8.80503 7.91852C8.74102 7.45619 8.71246 6.93573 8.56374 6.48957C8.52028 6.35919 8.37648 7.05852 8.36945 7.13511C8.31147 7.76649 8.23776 8.39193 8.20963 9.02471C8.18488 9.58156 8.15237 9.11729 8.12816 8.84609C8.06321 8.11869 7.97095 7.39558 7.90567 6.66819C7.83666 5.89922 7.70511 5.10441 7.70511 4.3336C7.70511 4.04898 7.70672 3.54829 7.45128 3.34962C7.37594 3.29102 7.30377 3.19549 7.22253 3.14907C7.07859 3.06682 7.21354 2.98143 7.29773 3.04879C7.38218 3.11635 7.57219 3.42614 7.46695 3.53138C7.30978 3.68855 6.78916 2.96406 6.68353 2.87017C6.31754 2.54485 5.59724 2.25973 5.11043 2.24657C4.79039 2.23792 4.47084 2.15299 4.14839 2.1933C3.4642 2.27882 2.56739 2.688 2.23371 3.31829C2.13501 3.50472 2.12676 3.61511 2.1209 3.82594C2.11495 4.04019 2.00512 4.22093 1.95168 4.42134C1.86377 4.751 1.78246 4.95174 1.78246 5.30504C1.78246 5.62366 2.1585 5.9607 2.41547 6.1386C2.85301 6.44151 3.1542 7.15418 3.3587 7.62709C3.56468 8.10342 3.89691 8.55753 4.16406 9.00278C4.33619 9.28966 4.64018 9.56988 4.94121 9.72039C5.47765 9.98861 5.96678 10.2374 6.35136 10.7075C6.74824 11.1926 7.01253 11.728 7.37921 12.2305C7.5008 12.3971 7.67127 12.5912 7.74898 12.782C7.88741 13.1218 7.74351 12.6408 7.70198 12.5344C7.35187 11.6373 6.9724 10.8105 6.74307 9.86454C6.44672 8.64207 6.1857 7.38612 5.71836 6.2138C5.44889 5.53784 5.21271 4.86374 4.99762 4.17065C4.87786 3.78476 4.54637 2.64162 4.54637 3.04566C4.54637 3.47476 4.6736 4.11259 4.48996 4.50282C4.44254 4.60358 4.32074 4.75885 4.32074 4.86632C4.32074 5.2646 4.75535 5.74164 5.00075 6.02578C5.30116 6.37363 5.63886 6.74195 5.98786 7.0411C6.13342 7.16586 6.28247 7.37537 6.46418 7.43594" stroke="#D80404" stroke-width="3" stroke-linecap="round"/>
</g>
<defs>
<clipPath id="clip0">
<rect width="19" height="17" fill="white"/>
</clipPath>
</defs>
</svg>
