<svg width="106" height="104" viewBox="0 0 106 104" fill="none" xmlns="http://www.w3.org/2000/svg">
<g clip-path="url(#clip0)">
<path d="M52.02 103C80.1865 103 103.02 80.1665 103.02 52C103.02 23.8335 80.1865 1 52.02 1C23.8535 1 1.02002 23.8335 1.02002 52C1.02002 80.1665 23.8535 103 52.02 103Z" stroke="black" stroke-width="2"/>
<path d="M14.1558 46.0043C17.321 46.0477 18.9053 48.3067 20.7329 50.9212C22.7237 53.7698 24.9785 57 29.4397 57C33.9009 57 36.1558 53.7698 38.1501 50.9212C39.995 48.2806 41.5898 46 44.814 46C48.0418 46 49.6365 48.2806 51.4815 50.9212C53.4723 53.7698 55.7307 57 60.1919 57C64.6531 57 66.9079 53.7698 68.9023 50.9212C70.7472 48.2806 72.3419 46 75.5696 46C78.7974 46 80.3921 48.2806 82.237 50.9212C84.2279 53.7698 86.4862 57 90.9474 57" stroke="black" stroke-width="2" stroke-miterlimit="10"/>
</g>
<defs>
<clipPath id="clip0">
<rect width="105.083" height="104" fill="white" transform="translate(0.00976562)"/>
</clipPath>
</defs>
</svg>
