<svg width="107" height="104" viewBox="0 0 107 104" fill="none" xmlns="http://www.w3.org/2000/svg">
<path d="M52.9995 103C81.166 103 104 80.1665 104 52C104 23.8335 81.166 1 52.9995 1C24.833 1 1.99951 23.8335 1.99951 52C1.99951 80.1665 24.833 103 52.9995 103Z" stroke="black" stroke-width="2"/>
<path d="M27.2603 74V52.5088C27.2603 36.7638 38.7959 24 53.0259 24C67.2559 24 78.7915 36.7638 78.7915 52.5088V74" stroke="black" stroke-width="2"/>
<path d="M35.3433 74V51.386C35.3433 40.6794 43.2599 32 53.0256 32C62.7912 32 70.7078 40.6794 70.7078 51.386V74" stroke="black" stroke-width="2"/>
<path d="M43.4268 73.5V51.0777C43.4268 44.9597 47.9506 40 53.5309 40C59.1113 40 63.6351 44.9597 63.6351 51.0777V73.5" stroke="black" stroke-width="2"/>
</svg>
