<svg width="106" height="104" viewBox="0 0 106 104" fill="none" xmlns="http://www.w3.org/2000/svg">
<g clip-path="url(#clip0)">
<path d="M52.041 103C80.2075 103 103.041 80.1665 103.041 52C103.041 23.8335 80.2075 1 52.041 1C23.8745 1 1.04102 23.8335 1.04102 52C1.04102 80.1665 23.8745 103 52.041 103Z" stroke="black" stroke-width="2"/>
<path d="M40.4473 67C52.1661 67 61.666 57.598 61.666 46C61.666 34.402 52.1661 25 40.4473 25C28.7285 25 19.2285 34.402 19.2285 46C19.2285 57.598 28.7285 67 40.4473 67Z" stroke="black" stroke-width="2"/>
<path d="M62.6768 81C74.3956 81 83.8955 71.598 83.8955 60C83.8955 48.402 74.3956 39 62.6768 39C50.958 39 41.458 48.402 41.458 60C41.458 71.598 50.958 81 62.6768 81Z" stroke="black" stroke-width="2"/>
</g>
<defs>
<clipPath id="clip0">
<rect width="105.083" height="104" fill="white" transform="translate(0.0307617)"/>
</clipPath>
</defs>
</svg>
