<svg width="107" height="104" viewBox="0 0 107 104" fill="none" xmlns="http://www.w3.org/2000/svg">
<g clip-path="url(#clip0)">
<path d="M52.937 103C81.1035 103 103.937 80.1665 103.937 52C103.937 23.8335 81.1035 1 52.937 1C24.7705 1 1.93701 23.8335 1.93701 52C1.93701 80.1665 24.7705 103 52.937 103Z" stroke="black" stroke-width="2"/>
<path d="M53.4683 44V20" stroke="black" stroke-width="2"/>
<path d="M53.4683 84V60" stroke="black" stroke-width="2"/>
<path d="M61.5518 52H85.8018" stroke="black" stroke-width="2"/>
<path d="M21.1353 52H45.3852" stroke="black" stroke-width="2"/>
<path d="M59.1841 46.3432L70.6156 35.0295" stroke="black" stroke-width="2"/>
<path d="M36.2915 69.3137L47.7231 58" stroke="black" stroke-width="2"/>
<path d="M47.7231 45.3432L36.2915 34.0295" stroke="black" stroke-width="2"/>
<path d="M70.6157 68.3137L59.1841 57" stroke="black" stroke-width="2"/>
<path d="M53.4683 55C55.1424 55 56.4995 53.6569 56.4995 52C56.4995 50.3431 55.1424 49 53.4683 49C51.7941 49 50.437 50.3431 50.437 52C50.437 53.6569 51.7941 55 53.4683 55Z" stroke="black" stroke-width="2"/>
</g>
<defs>
<clipPath id="clip0">
<rect width="105.083" height="104" fill="white" transform="translate(0.926758)"/>
</clipPath>
</defs>
</svg>
