<svg width="107" height="104" viewBox="0 0 107 104" fill="none" xmlns="http://www.w3.org/2000/svg">
<g clip-path="url(#clip0)">
<path d="M52.9785 103C81.145 103 103.979 80.1665 103.979 52C103.979 23.8335 81.145 1 52.9785 1C24.812 1 1.97852 23.8335 1.97852 52C1.97852 80.1665 24.812 103 52.9785 103Z" stroke="black" stroke-width="2"/>
<path d="M14.1035 52.5787C41.618 18.0627 81.2573 33.2499 92.916 52.5787C76.1275 77.9827 29.9593 81.5724 14.1035 52.5787Z" stroke="black" stroke-width="2"/>
<path d="M53.0046 64C59.422 64 64.6244 58.8513 64.6244 52.5C64.6244 46.1487 59.422 41 53.0046 41C46.5871 41 41.3848 46.1487 41.3848 52.5C41.3848 58.8513 46.5871 64 53.0046 64Z" stroke="black" stroke-width="2"/>
</g>
<defs>
<clipPath id="clip0">
<rect width="105.083" height="104" fill="white" transform="translate(0.968262)"/>
</clipPath>
</defs>
</svg>
